<?xml version="1.0" encoding="utf-8"?>
<!-- Generator: Adobe Illustrator 15.0.0, SVG Export Plug-In . SVG Version: 6.00 Build 0)  -->
<!DOCTYPE svg PUBLIC "-//W3C//DTD SVG 1.1//EN" "http://www.w3.org/Graphics/SVG/1.1/DTD/svg11.dtd">
<svg version="1.1" id="Layer_1" xmlns="http://www.w3.org/2000/svg" xmlns:xlink="http://www.w3.org/1999/xlink" x="0px" y="0px"
	 width="60px" height="60px" viewBox="0 0 60 60" enable-background="new 0 0 60 60" xml:space="preserve">
<g>
	<g>
		<path d="M29.795,56.462C15.301,56.462,3.51,44.67,3.51,30.176S15.301,3.891,29.795,3.891c14.494,0,26.286,11.792,26.286,26.286
			S44.289,56.462,29.795,56.462z M29.795,6.234c-13.202,0-23.941,10.741-23.941,23.942c0,13.202,10.74,23.942,23.941,23.942
			s23.942-10.74,23.942-23.942C53.737,16.975,42.997,6.234,29.795,6.234z"/>
	</g>
	<g>
		<g>
			<circle cx="21.173" cy="21.805" r="2.511"/>
		</g>
		<g>
			<circle cx="38.418" cy="21.805" r="2.512"/>
		</g>
	</g>
	<g>
		<path d="M29.795,41.778c-4.338,0-7.965-1.862-9.464-4.86c-0.302-0.604-0.057-1.338,0.546-1.64c0.603-0.302,1.337-0.058,1.64,0.546
			c1.065,2.133,3.923,3.511,7.278,3.511s6.212-1.378,7.279-3.511c0.301-0.604,1.036-0.848,1.639-0.546
			c0.604,0.302,0.849,1.036,0.547,1.64C37.76,39.916,34.134,41.778,29.795,41.778z"/>
	</g>
</g>
</svg>
