<?xml version="1.0" encoding="utf-8"?>
<!-- Generator: Adobe Illustrator 15.0.0, SVG Export Plug-In . SVG Version: 6.00 Build 0)  -->
<!DOCTYPE svg PUBLIC "-//W3C//DTD SVG 1.1//EN" "http://www.w3.org/Graphics/SVG/1.1/DTD/svg11.dtd">
<svg version="1.1" id="Layer_1" xmlns="http://www.w3.org/2000/svg" xmlns:xlink="http://www.w3.org/1999/xlink" x="0px" y="0px"
	 width="60px" height="60px" viewBox="0 0 60 60" enable-background="new 0 0 60 60" xml:space="preserve">
<g>
	<g>
		<path d="M29.965,56.462c-14.494,0-26.286-11.792-26.286-26.286S15.471,3.891,29.965,3.891S56.25,15.683,56.25,30.176
			S44.459,56.462,29.965,56.462z M29.965,6.234c-13.202,0-23.942,10.741-23.942,23.942c0,13.202,10.74,23.942,23.942,23.942
			c13.201,0,23.941-10.74,23.941-23.942C53.906,16.975,43.166,6.234,29.965,6.234z"/>
	</g>
	<g>
		<g>
			<circle cx="21.343" cy="21.805" r="2.511"/>
		</g>
		<g>
			<circle cx="38.588" cy="21.805" r="2.512"/>
		</g>
	</g>
	<g>
		<path d="M38.336,41.779H21.594c-0.675,0-1.222-0.547-1.222-1.223c0-0.675,0.547-1.222,1.222-1.222h16.742
			c0.676,0,1.223,0.547,1.223,1.222C39.559,41.232,39.012,41.779,38.336,41.779z"/>
	</g>
</g>
</svg>
