<?xml version="1.0" encoding="utf-8"?>
<!-- Generator: Adobe Illustrator 15.0.0, SVG Export Plug-In . SVG Version: 6.00 Build 0)  -->
<!DOCTYPE svg PUBLIC "-//W3C//DTD SVG 1.1//EN" "http://www.w3.org/Graphics/SVG/1.1/DTD/svg11.dtd">
<svg version="1.1" id="Layer_1" xmlns="http://www.w3.org/2000/svg" xmlns:xlink="http://www.w3.org/1999/xlink" x="0px" y="0px"
	 width="60px" height="60px" viewBox="0 0 60 60" enable-background="new 0 0 60 60" xml:space="preserve">
<g>
	<g>
		<path d="M30.05,56.462c-14.494,0-26.286-11.792-26.286-26.286S15.556,3.891,30.05,3.891c14.493,0,26.285,11.792,26.285,26.286
			S44.543,56.462,30.05,56.462z M30.05,6.234c-13.202,0-23.942,10.741-23.942,23.942c0,13.202,10.74,23.942,23.942,23.942
			c13.201,0,23.941-10.74,23.941-23.942C53.991,16.975,43.251,6.234,30.05,6.234z"/>
	</g>
	<g>
		<g>
			<circle cx="21.427" cy="21.805" r="2.511"/>
		</g>
		<g>
			<circle cx="38.672" cy="21.805" r="2.512"/>
		</g>
	</g>
	<g>
		<path d="M21.679,41.779c-0.465,0-0.91-0.268-1.114-0.719c-0.278-0.614-0.006-1.338,0.609-1.617c5.391-2.442,12.359-2.442,17.751,0
			c0.613,0.279,0.887,1.003,0.607,1.617c-0.278,0.615-1.002,0.887-1.617,0.609c-4.779-2.166-10.955-2.166-15.733,0
			C22.019,41.744,21.848,41.779,21.679,41.779z"/>
	</g>
</g>
</svg>
