<?xml version="1.0" encoding="utf-8"?>
<!-- Generator: Adobe Illustrator 15.0.0, SVG Export Plug-In . SVG Version: 6.00 Build 0)  -->
<!DOCTYPE svg PUBLIC "-//W3C//DTD SVG 1.1//EN" "http://www.w3.org/Graphics/SVG/1.1/DTD/svg11.dtd">
<svg version="1.1" id="Layer_1" xmlns="http://www.w3.org/2000/svg" xmlns:xlink="http://www.w3.org/1999/xlink" x="0px" y="0px"
	 width="60px" height="60px" viewBox="0 0 60 60" enable-background="new 0 0 60 60" xml:space="preserve">
<g>
	<g>
		<path d="M29.88,56.462c-14.494,0-26.286-11.792-26.286-26.286S15.386,3.891,29.88,3.891c14.494,0,26.286,11.792,26.286,26.286
			S44.374,56.462,29.88,56.462z M29.88,6.234c-13.202,0-23.942,10.741-23.942,23.942c0,13.202,10.74,23.942,23.942,23.942
			s23.942-10.74,23.942-23.942C53.822,16.975,43.082,6.234,29.88,6.234z"/>
	</g>
	<g>
		<g>
			<circle cx="21.258" cy="21.805" r="2.511"/>
		</g>
		<g>
			<circle cx="38.502" cy="21.805" r="2.511"/>
		</g>
	</g>
	<g>
		<path d="M29.88,41.768c-3.09,0-6.18-0.61-8.875-1.832c-0.615-0.277-0.888-1.002-0.609-1.617c0.278-0.614,1.002-0.887,1.617-0.608
			c4.779,2.165,10.956,2.165,15.734,0c0.615-0.278,1.339-0.006,1.617,0.608c0.278,0.615,0.007,1.34-0.608,1.617
			C36.061,41.157,32.971,41.768,29.88,41.768z"/>
	</g>
</g>
</svg>
