<?xml version="1.0" encoding="utf-8"?>
<!-- Generator: Adobe Illustrator 15.0.0, SVG Export Plug-In . SVG Version: 6.00 Build 0)  -->
<!DOCTYPE svg PUBLIC "-//W3C//DTD SVG 1.1//EN" "http://www.w3.org/Graphics/SVG/1.1/DTD/svg11.dtd">
<svg version="1.1" id="Layer_1" xmlns="http://www.w3.org/2000/svg" xmlns:xlink="http://www.w3.org/1999/xlink" x="0px" y="0px"
	 width="60px" height="60px" viewBox="0 0 60 60" enable-background="new 0 0 60 60" xml:space="preserve">
<g>
	<g>
		<path d="M30.134,56.462c-14.494,0-26.286-11.792-26.286-26.286S15.641,3.891,30.134,3.891c14.495,0,26.286,11.792,26.286,26.286
			S44.629,56.462,30.134,56.462z M30.134,6.234c-13.201,0-23.942,10.741-23.942,23.942c0,13.202,10.741,23.942,23.942,23.942
			c13.202,0,23.942-10.74,23.942-23.942C54.076,16.975,43.336,6.234,30.134,6.234z"/>
	</g>
	<g>
		<g>
			<circle cx="21.512" cy="21.805" r="2.511"/>
		</g>
		<g>
			<circle cx="38.757" cy="21.805" r="2.511"/>
		</g>
	</g>
	<g>
		<path d="M38.506,41.779c-0.447,0-0.879-0.248-1.094-0.676c-1.065-2.133-3.922-3.511-7.278-3.511c-3.355,0-6.212,1.378-7.278,3.511
			c-0.301,0.604-1.035,0.848-1.64,0.546c-0.603-0.302-0.848-1.036-0.546-1.64c1.5-2.998,5.126-4.86,9.464-4.86
			s7.965,1.862,9.464,4.86c0.302,0.604,0.057,1.338-0.546,1.64C38.877,41.737,38.689,41.779,38.506,41.779z"/>
	</g>
</g>
</svg>
